<?xml version="1.0" encoding="utf-8"?>
<!-- Generator: Adobe Illustrator 28.2.0, SVG Export Plug-In . SVG Version: 6.00 Build 0)  -->
<svg version="1.1" id="Layer_1" xmlns="http://www.w3.org/2000/svg" xmlns:xlink="http://www.w3.org/1999/xlink" x="0px" y="0px"
	 viewBox="0 0 192 192" style="enable-background:new 0 0 192 192;" xml:space="preserve">
<style type="text/css">
	.st0{fill:#4A148C;}
	.st1{fill:#FFFFFF;stroke:#FFFFFF;stroke-miterlimit:10;}
</style>
<g>
	<rect x="-21.5" y="-21.6" class="st0" width="233" height="233"/>
	<g>
		<path class="st1" d="M93.7,76.1l-55-8.2c-0.9-0.2-1.6,0.5-1.9,1.4l-4,27.4c-2.1,15.4,8.2,29.9,23.4,33l-4.9,35.1l-23.9,5.6
			c-0.9,0-1.6,0.7-1.4,1.6c0,0.9,0.7,1.6,1.6,1.4l46.8,6.6h0.2c0.9,0,1.6-0.7,1.6-1.6c0-0.5-0.2-1.2-0.7-1.4L54.6,165l4.9-35.1
			c0.9,0,1.9,0.2,2.8,0.2c14.5,0,26.7-10.5,28.8-24.8l4-27.4c0-0.5,0-0.9-0.2-1.2C94.4,76.3,94.1,76.1,93.7,76.1z M39.8,71.4
			l51.9,7.7l-2.1,14.3l-51.9-7.7L39.8,71.4z M36.1,171.3l15.9-3.7l14.3,8.2L36.1,171.3z M77.5,122c-11.7,8.7-28.1,6.1-36.7-5.6
			c-4-5.6-5.8-12.4-4.9-19.2l1.2-8.4L89,96.2l-1.2,8.4C86.9,111.7,83.1,117.8,77.5,122L77.5,122z"/>
		<path class="st1" d="M54.4,117.5c-13.6-6.8-10.3-22-10.3-22.7c0.2-0.9-0.5-1.6-1.2-1.9c-0.9-0.2-1.6,0.5-1.9,1.2
			c0,0.2-3.7,18.3,11.9,26.2c0.2,0,0.5,0.2,0.7,0.2c0.7,0,1.2-0.2,1.4-0.9C55.3,118.9,55.1,118,54.4,117.5z"/>
		<path class="st1" d="M139.3,120.6c0.2,0,0.5,0,0.7-0.2c15-8.7,11-26,11-26c-0.2-0.9-1.2-1.4-1.9-1.2c-0.9,0.2-1.4,1.2-1.2,1.9
			c0.2,0.7,3.3,15.2-9.6,22.7c-0.7,0.5-0.9,1.4-0.7,2.1C138.1,120.3,138.6,120.6,139.3,120.6z"/>
		<path class="st1" d="M80.6,36.8c-0.9-0.2-1.6,0.2-1.9,1.2c-0.2,0.9,0.2,1.6,1.2,1.9l0,0c0.2,0,12.6,3.5,13.3,16.4
			c0,0.9,0.7,1.6,1.6,1.6l0,0c0.9,0,1.6-0.7,1.4-1.6l0,0C95.3,41,80.8,36.8,80.6,36.8z"/>
		<path class="st1" d="M126.4,46.6c0-0.9-0.7-1.6-1.6-1.6c-0.2,0-20.6,0.2-22.9,16.8c-0.2,0.9,0.5,1.6,1.4,1.9h0.2
			c0.7,0,1.4-0.5,1.6-1.4C107,48.3,124.3,48,125,48C125.7,48,126.4,47.3,126.4,46.6z"/>
		<path class="st1" d="M112.1,61.8c-0.2,0.9,0.5,1.6,1.4,1.9h0.2c0.7,0,1.4-0.5,1.6-1.4c0.5-3.7,5.6-4,5.8-4c0.9,0,1.6-0.7,1.6-1.6
			c0-0.9-0.7-1.6-1.6-1.6C118.5,55.3,113.1,56.7,112.1,61.8z"/>
		<path class="st1" d="M164.6,170.2l-23.9-5.6l-4.9-35.1c15.2-3,25.5-17.5,23.4-33l-4-27.4c-0.2-0.9-0.9-1.4-1.9-1.4l-55,8.4
			c-0.5,0-0.7,0.2-0.9,0.7c-0.2,0.2-0.5,0.7-0.2,1.2l4,27.4c2.1,14.3,14.3,24.8,28.8,25c0.9,0,1.9,0,2.8-0.2l4.9,35.1l-21.1,11.9
			c-0.7,0.5-0.9,1.4-0.7,2.1c0.2,0.5,0.7,0.7,1.4,0.7h0.2l46.8-6.6c0.9,0,1.6-0.7,1.6-1.4C166.2,171.1,165.5,170.2,164.6,170.2
			L164.6,170.2z M152.2,71.4l2.1,14.3l-51.9,7.7l-2.1-14.3L152.2,71.4z M114.5,122c-5.6-4.2-9.1-10.3-10.3-17.1l-1.2-8.7l51.9-7.7
			l1.2,8.4c1.9,14.5-8.2,27.6-22.5,29.7C126.9,127.6,119.9,126,114.5,122z M125.5,175.8l14.3-8.2l15.9,3.7L125.5,175.8z"/>
		<path class="st1" d="M102.3,70.7c0.9,0,1.6-0.7,1.6-1.6s-0.7-1.6-1.6-1.6l0,0c-0.9,0-1.6,0.7-1.6,1.6S101.4,70.7,102.3,70.7z"/>
		<path class="st1" d="M74.9,39.1c0.9,0,1.6-0.7,1.6-1.6s-0.7-1.6-1.6-1.6l0,0c-0.9,0-1.6,0.7-1.6,1.6S74,39.1,74.9,39.1z"/>
		<path class="st1" d="M70.7,45.5c0.9,0.2,1.6-0.5,1.9-1.2c0.2-0.9-0.5-1.6-1.2-1.9c-0.2,0-5.4-1.2-8.7,0.9
			c-0.7,0.5-0.9,1.4-0.7,2.1l0,0c0.2,0.5,0.7,0.7,1.4,0.7c0.2,0,0.5,0,0.7-0.2C66.3,45.2,68.6,45,70.7,45.5z"/>
		<path class="st1" d="M118,29.3c0,0,0.2-0.5,0.2-0.7l0.2-0.5c0.7-2.6,0.5-5.4-0.9-7.5c-1.2-2.3-3.3-4-5.8-4.7c-3-0.7-6.3,0-8.7,2.1
			c-1.2-2.8-3.5-5.1-6.6-5.8c-5.4-1.2-10.5,2.1-11.9,7.5l0,0v0.5v0.5c-1.4,8,10.1,20.1,11.5,21.5c0.2,0.2,0.7,0.5,1.2,0.5
			c0.2,0,0.2,0,0.5,0C99.3,42.2,115.2,37,118,29.3z M115,28.4c-1.6,4.7-12.4,9.1-17.5,11c-3.5-4-10.8-13.1-9.8-18l0.2-0.9
			c0.7-3,3.3-5.1,6.6-5.4c0.5,0,1.2,0,1.6,0.2c2.8,0.9,4.7,3.5,4.7,6.6c0,0.9,0.7,1.6,1.4,1.6c0.5,0,1.2-0.2,1.4-0.7
			c1.4-2.6,4.4-4,7.3-3.5c1.6,0.5,3,1.6,4,3c0.9,1.6,1.2,3.5,0.7,5.1v0.5C115.2,27.9,115,28.4,115,28.4z"/>
		<path class="st1" d="M65.8,63.9l0.2,0.5c3.3,4.4,14.3,4.7,15.7,4.9l0,0c0.7,0,1.2-0.2,1.4-0.9c0.7-1.2,5.6-11,3.3-15.9L86.2,52
			v-0.5l0,0c-1.9-3.3-6.1-4.7-9.6-2.8c-1.6,0.9-2.8,2.6-3.3,4.7c-1.9-0.7-4-0.5-5.6,0.5c-1.6,0.9-2.8,2.6-3.3,4.2
			c-0.5,1.9-0.2,3.7,0.7,5.1C65.6,63.7,65.8,63.7,65.8,63.9z M67.9,59c0.2-1.6,1.6-2.8,3.3-2.8c1.2,0,2.1,0.5,2.8,1.2
			c0.5,0.5,1.4,0.7,1.9,0.2c0.7-0.5,0.9-1.2,0.7-1.9c-0.5-1.6,0.2-3.5,1.6-4.2c1.9-0.9,4.2-0.2,5.1,1.6l1.4-0.7l-1.4,0.9l0.2,0.5
			c1.2,2.6-0.9,8.4-2.8,12.4c-4.2-0.2-10.5-1.4-12.2-3.5l-0.2-0.5C67.9,61.1,67.7,60,67.9,59L67.9,59z"/>
	</g>
</g>
</svg>
