<?xml version="1.0" encoding="utf-8"?>
<!-- Generator: Adobe Illustrator 28.2.0, SVG Export Plug-In . SVG Version: 6.00 Build 0)  -->
<svg version="1.1" id="Layer_1" xmlns="http://www.w3.org/2000/svg" xmlns:xlink="http://www.w3.org/1999/xlink" x="0px" y="0px"
	 viewBox="0 0 80 80" style="enable-background:new 0 0 80 80;" xml:space="preserve">
<g>
	<path d="M39,31.5L15.5,28c-0.4-0.1-0.7,0.2-0.8,0.6L13,40.3c-0.9,6.6,3.5,12.8,10,14.1l-2.1,15l-10.2,2.4c-0.4,0-0.7,0.3-0.6,0.7
		c0,0.4,0.3,0.7,0.7,0.6l20,2.8h0.1c0.4,0,0.7-0.3,0.7-0.7c0-0.2-0.1-0.5-0.3-0.6l-9-5.1l2.1-15c0.4,0,0.8,0.1,1.2,0.1
		c6.2,0,11.4-4.5,12.3-10.6l1.7-11.7c0-0.2,0-0.4-0.1-0.5C39.3,31.6,39.2,31.5,39,31.5z M16,29.5l22.2,3.3l-0.9,6.1l-22.2-3.3
		L16,29.5z M14.4,72.2l6.8-1.6l6.1,3.5L14.4,72.2z M32.1,51.1c-5,3.7-12,2.6-15.7-2.4c-1.7-2.4-2.5-5.3-2.1-8.2l0.5-3.6L37,40.1
		l-0.5,3.6C36.1,46.7,34.5,49.3,32.1,51.1L32.1,51.1z"/>
	<path d="M22.2,49.2c-5.8-2.9-4.4-9.4-4.4-9.7c0.1-0.4-0.2-0.7-0.5-0.8c-0.4-0.1-0.7,0.2-0.8,0.5c0,0.1-1.6,7.8,5.1,11.2
		c0.1,0,0.2,0.1,0.3,0.1c0.3,0,0.5-0.1,0.6-0.4C22.6,49.8,22.5,49.4,22.2,49.2z"/>
	<path d="M58.5,50.5c0.1,0,0.2,0,0.3-0.1c6.4-3.7,4.7-11.1,4.7-11.1c-0.1-0.4-0.5-0.6-0.8-0.5c-0.4,0.1-0.6,0.5-0.5,0.8
		s1.4,6.5-4.1,9.7c-0.3,0.2-0.4,0.6-0.3,0.9C58,50.4,58.2,50.5,58.5,50.5z"/>
	<path d="M33.4,14.7c-0.4-0.1-0.7,0.1-0.8,0.5s0.1,0.7,0.5,0.8l0,0c0.1,0,5.4,1.5,5.7,7c0,0.4,0.3,0.7,0.7,0.7l0,0
		c0.4,0,0.7-0.3,0.6-0.7l0,0C39.7,16.5,33.5,14.7,33.4,14.7z"/>
	<path d="M53,18.9c0-0.4-0.3-0.7-0.7-0.7c-0.1,0-8.8,0.1-9.8,7.2c-0.1,0.4,0.2,0.7,0.6,0.8h0.1c0.3,0,0.6-0.2,0.7-0.6
		c0.8-6,8.2-6.1,8.5-6.1C52.7,19.5,53,19.2,53,18.9z"/>
	<path d="M46.9,25.4c-0.1,0.4,0.2,0.7,0.6,0.8h0.1c0.3,0,0.6-0.2,0.7-0.6c0.2-1.6,2.4-1.7,2.5-1.7c0.4,0,0.7-0.3,0.7-0.7
		s-0.3-0.7-0.7-0.7C49.6,22.6,47.3,23.2,46.9,25.4z"/>
	<path d="M69.3,71.7l-10.2-2.4l-2.1-15c6.5-1.3,10.9-7.5,10-14.1l-1.7-11.7c-0.1-0.4-0.4-0.6-0.8-0.6L41,31.5
		c-0.2,0-0.3,0.1-0.4,0.3c-0.1,0.1-0.2,0.3-0.1,0.5L42.2,44c0.9,6.1,6.1,10.6,12.3,10.7c0.4,0,0.8,0,1.2-0.1l2.1,15l-9,5.1
		c-0.3,0.2-0.4,0.6-0.3,0.9c0.1,0.2,0.3,0.3,0.6,0.3h0.1l20-2.8c0.4,0,0.7-0.3,0.7-0.6C70,72.1,69.7,71.7,69.3,71.7L69.3,71.7z
		 M64,29.5l0.9,6.1l-22.2,3.3l-0.9-6.1L64,29.5z M47.9,51.1c-2.4-1.8-3.9-4.4-4.4-7.3L43,40.1l22.2-3.3l0.5,3.6
		c0.8,6.2-3.5,11.8-9.6,12.7C53.2,53.5,50.2,52.8,47.9,51.1z M52.6,74.1l6.1-3.5l6.8,1.6L52.6,74.1z"/>
	<path d="M42.7,29.2c0.4,0,0.7-0.3,0.7-0.7s-0.3-0.7-0.7-0.7l0,0c-0.4,0-0.7,0.3-0.7,0.7S42.3,29.2,42.7,29.2z"/>
	<path d="M31,15.7c0.4,0,0.7-0.3,0.7-0.7s-0.3-0.7-0.7-0.7l0,0c-0.4,0-0.7,0.3-0.7,0.7S30.6,15.7,31,15.7z"/>
	<path d="M29.2,18.4c0.4,0.1,0.7-0.2,0.8-0.5c0.1-0.4-0.2-0.7-0.5-0.8c-0.1,0-2.3-0.5-3.7,0.4c-0.3,0.2-0.4,0.6-0.3,0.9l0,0
		c0.1,0.2,0.3,0.3,0.6,0.3c0.1,0,0.2,0,0.3-0.1C27.3,18.3,28.3,18.2,29.2,18.4z"/>
	<path d="M49.4,11.5c0,0,0.1-0.2,0.1-0.3l0.1-0.2c0.3-1.1,0.2-2.3-0.4-3.2c-0.5-1-1.4-1.7-2.5-2c-1.3-0.3-2.7,0-3.7,0.9
		c-0.5-1.2-1.5-2.2-2.8-2.5c-2.3-0.5-4.5,0.9-5.1,3.2l0,0v0.2v0.2c-0.6,3.4,4.3,8.6,4.9,9.2c0.1,0.1,0.3,0.2,0.5,0.2
		c0.1,0,0.1,0,0.2,0C41.4,17,48.2,14.8,49.4,11.5z M48.1,11.1c-0.7,2-5.3,3.9-7.5,4.7c-1.5-1.7-4.6-5.6-4.2-7.7l0.1-0.4
		c0.3-1.3,1.4-2.2,2.8-2.3c0.2,0,0.5,0,0.7,0.1c1.2,0.4,2,1.5,2,2.8C42,8.7,42.3,9,42.6,9c0.2,0,0.5-0.1,0.6-0.3
		c0.6-1.1,1.9-1.7,3.1-1.5C47,7.4,47.6,7.9,48,8.5c0.4,0.7,0.5,1.5,0.3,2.2v0.2C48.2,10.9,48.1,11.1,48.1,11.1z"/>
	<path d="M27.1,26.3l0.1,0.2c1.4,1.9,6.1,2,6.7,2.1l0,0c0.3,0,0.5-0.1,0.6-0.4c0.3-0.5,2.4-4.7,1.4-6.8l-0.1-0.2l0-0.2l0,0
		c-0.8-1.4-2.6-2-4.1-1.2c-0.7,0.4-1.2,1.1-1.4,2c-0.8-0.3-1.7-0.2-2.4,0.2c-0.7,0.4-1.2,1.1-1.4,1.8c-0.2,0.8-0.1,1.6,0.3,2.2
		C27,26.2,27.1,26.2,27.1,26.3z M28,24.2c0.1-0.7,0.7-1.2,1.4-1.2c0.5,0,0.9,0.2,1.2,0.5c0.2,0.2,0.6,0.3,0.8,0.1
		c0.3-0.2,0.4-0.5,0.3-0.8c-0.2-0.7,0.1-1.5,0.7-1.8c0.8-0.4,1.8-0.1,2.2,0.7l0.6-0.3l-0.6,0.4l0.1,0.2c0.5,1.1-0.4,3.6-1.2,5.3
		c-1.8-0.1-4.5-0.6-5.2-1.5l-0.1-0.2C28,25.1,27.9,24.6,28,24.2L28,24.2z"/>
</g>
</svg>
